Two friends, Kini and Adams, live as poor farmers in a rural South African community. They struggle to fix up an old car to enable them to move to the city to find a better life

Language : English
Subtitles: Spanish.srt
 
http://www.imdb.com/title/tt0119463

Screemshoots:
 
http://img26.imageshack.us/img26/1038/vlcsnap2011103016h09m18.png 
http://img832.imageshack.us/img832/4531/vlcsnap2011103016h11m01.png 
http://img163.imageshack.us/img163/1846/vlcsnap2011103016h11m43.png 
http://img804.imageshack.us/img804/4503/vlcsnap2011103016h16m46.png 
http://img851.imageshack.us/img851/4840/vlcsnap2011103122h49m08.png

Source	dvdrip
Rip Specs	Format : Matroska 
Format version : Version 2 
File size : 1.37 GiB 
Duration : 1h 28mn 
Overall bit rate : 2 212 Kbps 
Encoded date : UTC 2011-10-29 22:01:49 
Writing application : mkvmerge v4.9.1 ('Ich will') built on Jul 11 2011 23:53:15 
Writing library : libebml v1.2.1 + libmatroska v1.1.1 

Video 
ID : 1 
Format : AVC 
Format/Info : Advanced Video Codec 
Format profile : High@L4.1 
Format settings, CABAC : Yes 
Format settings, ReFrames : 4 frames 
Codec ID : V_MPEG4/ISO/AVC 
Duration : 1h 28mn 
Bit rate : 2 018 Kbps 
Width : 720 pixels 
Height : 432 pixels 
Display aspect ratio : 1.667 
Frame rate : 25.000 fps 
Color space : YUV 
Chroma subsampling : 4:2:0 
Bit depth : 8 bits 
Scan type : Progressive 
Bits/(Pixel*Frame) : 0.260 
Stream size : 1.23 GiB (89%) 
Writing library : x264 core 116 r2074 2641b9e 

Audio 
ID : 2 
Format : AC-3 
Format/Info : Audio Coding 3 
Mode extension : CM (complete main) 
Codec ID : A_AC3 
Duration : 1h 28mn 
Bit rate mode : Constant 
Bit rate : 192 Kbps 
Channel(s) : 2 channels 
Channel positions : Front: L R 
Sampling rate : 48.0 KHz 
Bit depth : 16 bits 
Compression mode : Lossy 
Stream size : 122 MiB (9%) 

Upped KG: niloarias
